<?xml version="1.0" encoding="UTF-8"?>
<svg xmlns="http://www.w3.org/2000/svg" xmlns:xlink="http://www.w3.org/1999/xlink" width="150pt" height="150pt" viewBox="0 0 150 150" version="1.1">
<g id="surface24491409">
<path style=" stroke:none;fill-rule:nonzero;fill:rgb(100%,100%,100%);fill-opacity:1;" d="M 75 15 C 43.054688 15 16.898438 40.136719 15.164062 71.671875 C 15.023438 73.828125 16.042969 75.890625 17.847656 77.085938 C 19.652344 78.269531 21.960938 78.398438 23.882812 77.414062 C 25.804688 76.429688 27.058594 74.484375 27.140625 72.328125 C 28.535156 47.027344 49.324219 27 75 27 C 88.757812 27 101.097656 32.777344 109.828125 42 L 102 42 C 99.832031 41.964844 97.828125 43.101562 96.738281 44.976562 C 95.636719 46.839844 95.636719 49.160156 96.738281 51.023438 C 97.828125 52.898438 99.832031 54.035156 102 54 L 120.785156 54 C 121.464844 54.117188 122.15625 54.117188 122.847656 54 L 132 54 L 132 24 C 132.023438 22.382812 131.390625 20.824219 130.242188 19.675781 C 129.09375 18.527344 127.535156 17.894531 125.90625 17.917969 C 122.601562 17.964844 119.953125 20.683594 120 24 L 120 35.332031 C 108.996094 22.863281 92.894531 15 75 15 Z M 129.09375 71.917969 C 125.777344 71.777344 122.988281 74.355469 122.859375 77.671875 C 121.464844 102.972656 100.675781 123 75 123 C 61.242188 123 48.914062 117.222656 40.171875 108 L 48 108 C 50.167969 108.035156 52.171875 106.898438 53.261719 105.023438 C 54.363281 103.160156 54.363281 100.839844 53.261719 98.976562 C 52.171875 97.101562 50.167969 95.964844 48 96 L 29.15625 96 C 28.523438 95.90625 27.890625 95.90625 27.257812 96 L 18 96 L 18 126 C 17.964844 128.167969 19.101562 130.171875 20.976562 131.261719 C 22.839844 132.363281 25.160156 132.363281 27.023438 131.261719 C 28.898438 130.171875 30.035156 128.167969 30 126 L 30 114.667969 C 41.003906 127.136719 57.105469 135 75 135 C 106.945312 135 133.101562 109.863281 134.835938 78.328125 C 134.953125 76.710938 134.402344 75.117188 133.324219 73.910156 C 132.234375 72.703125 130.710938 71.988281 129.09375 71.917969 Z M 129.09375 71.917969 "/>
</g>
</svg>
